<svg version="1.1" viewBox="0.0 0.0 822.8582677165355 113.54330708661418" fill="none" stroke="none" stroke-linecap="square" stroke-miterlimit="10" xmlns:xlink="http://www.w3.org/1999/xlink" xmlns="http://www.w3.org/2000/svg"><clipPath id="p.0"><path d="m0 0l822.8583 0l0 113.543304l-822.8583 0l0 -113.543304z" clip-rule="nonzero"/></clipPath><g clip-path="url(#p.0)"><path fill="#000000" fill-opacity="0.0" d="m0 0l822.8583 0l0 113.543304l-822.8583 0z" fill-rule="evenodd"/><path fill="#000000" fill-opacity="0.0" d="m-2.6653543 -1.4015749l828.18896 0l0 116.34646l-828.18896 0z" fill-rule="evenodd"/><path fill="#000000" d="m54.276295 27.445295l19.515629 50.234375q1.125 2.953125 2.59375 4.0q1.484375 1.03125 2.765625 1.125l0 1.59375q-1.921875 -0.15625 -4.53125 -0.1875q-2.59375 -0.046875 -5.234375 -0.046875q-3.359375 0 -6.234379 0.046875q-2.875 0.03125 -4.640625 0.1875l0 -1.59375q4.078125 -0.171875 5.15625 -1.40625q1.0781288 -1.234375 -0.515625 -5.3125l-14.40625 -38.890625l1.28125 -1.4375l-13.28125 34.71875q-1.4375 3.609375 -1.71875 6.015625q-0.28125 2.390625 0.390625 3.75q0.6875 1.359375 2.359375 1.921875q1.6875 0.546875 4.171875 0.640625l0 1.59375q-2.40625 -0.15625 -4.84375 -0.1875q-2.4375 -0.046875 -4.59375 -0.046875q-1.9218731 0 -3.406248 0.046875q-1.46875 0.03125 -2.671875 0.1875l0 -1.59375q1.671875 -0.40625 3.34375 -2.0q1.6875 -1.609375 3.218748 -5.453125l18.546875 -47.90625q0.640625 0 1.359375 0q0.734375 0 1.375 0zm8.390625 33.90625l0 1.609375l-23.84375 0l0.8125 -1.609375l23.03125 0zm45.92246 -19.359375q3.203125 0 5.234375 0.84375q2.046875 0.84375 3.40625 2.28125q1.4375 1.515625 2.03125 3.921875q0.609375 2.40625 0.609375 6.484375l0 21.4375q0 3.359375 1.3125 4.5625q1.328125 1.1875 4.453125 1.1875l0 1.6875q-1.359375 -0.078125 -4.25 -0.1875q-2.875 -0.125 -5.671875 -0.125q-2.71875 0 -5.40625 0.125q-2.671875 0.109375 -4.03125 0.1875l0 -1.6875q2.71875 0 3.828125 -1.1875q1.125 -1.203125 1.125 -4.5625l0 -23.6875q0 -2.3125 -0.40625 -4.1875q-0.390625 -1.890625 -1.671875 -3.046875q-1.28125 -1.15625 -3.84375 -1.15625q-2.953125 0 -5.234375 1.6875q-2.28125 1.671875 -3.609375 4.59375q-1.3125 2.921875 -1.3125 6.515625l0 19.28125q0 3.359375 1.15625 4.5625q1.15625 1.1875 3.796875 1.1875l0 1.6875q-1.28125 -0.078125 -3.875 -0.1875q-2.59375 -0.125 -5.40625 -0.125q-2.71875 0 -5.6875 0.125q-2.953125 0.109375 -4.390625 0.1875l0 -1.6875q3.125 0 4.4375 -1.1875q1.328125 -1.203125 1.328125 -4.5625l0 -25.125q0 -3.59375 -1.203125 -5.3125q-1.203125 -1.71875 -4.5625 -1.71875l0 -1.6875q2.5625 0.234375 4.96875 0.234375q2.71875 0 5.078125 -0.265625q2.359375 -0.28125 4.359375 -0.84375l0 8.71875q2.078125 -4.96875 5.71875 -6.96875q3.640625 -2.0 7.71875 -2.0zm34.396202 -12.078127l0 13.281252l11.046875 0l0 1.609375l-11.046875 0l0 31.4375q0 3.28125 1.203125 4.640625q1.203125 1.359375 3.4375 1.359375q2.078125 0 3.71875 -1.671875q1.640625 -1.6875 2.84375 -5.6875l1.515625 0.5625q-0.953125 4.234375 -3.390625 7.15625q-2.4375 2.921875 -7.171875 2.921875q-2.71875 0 -4.5625 -0.6875q-1.828125 -0.671875 -3.1875 -1.953125q-1.765625 -1.84375 -2.40625 -4.40625q-0.640625 -2.5625 -0.640625 -6.796875l0 -26.875l-7.3593674 0l0 -1.609375l7.3593674 0l0 -11.671877q2.484375 -0.078125 4.640625 -0.4375q2.15625 -0.375 4.0 -1.171875zm34.159973 12.078127q5.359375 0 9.515625 2.25q4.171875 2.234375 6.640625 7.046875q2.484375 4.796875 2.484375 12.546875q0 7.765625 -2.484375 12.53125q-2.46875 4.75 -6.640625 6.953125q-4.15625 2.203125 -9.515625 2.203125q-5.28125 0 -9.515625 -2.203125q-4.234375 -2.203125 -6.6875 -6.953125q-2.4375 -4.765625 -2.4375 -12.53125q0 -7.75 2.4375 -12.546875q2.453125 -4.8125 6.6875 -7.046875q4.234375 -2.25 9.515625 -2.25zm0 1.609375q-4.15625 0 -6.796875 4.765625q-2.640625 4.75 -2.640625 15.46875q0 10.71875 2.640625 15.40625q2.640625 4.671875 6.796875 4.671875q4.078125 0 6.75 -4.671875q2.6875 -4.6875 2.6875 -15.40625q0 -10.71875 -2.6875 -15.46875q-2.671875 -4.765625 -6.75 -4.765625zm52.16371 -1.609375q3.203125 0 5.234375 0.84375q2.046875 0.84375 3.40625 2.28125q1.4375 1.515625 2.03125 3.921875q0.609375 2.40625 0.609375 6.484375l0 21.4375q0 3.359375 1.3125 4.5625q1.328125 1.1875 4.453125 1.1875l0 1.6875q-1.359375 -0.078125 -4.25 -0.1875q-2.875 -0.125 -5.671875 -0.125q-2.71875 0 -5.40625 0.125q-2.671875 0.109375 -4.03125 0.1875l0 -1.6875q2.71875 0 3.828125 -1.1875q1.125 -1.203125 1.125 -4.5625l0 -23.6875q0 -2.3125 -0.40625 -4.1875q-0.390625 -1.890625 -1.671875 -3.046875q-1.28125 -1.15625 -3.84375 -1.15625q-2.953125 0 -5.234375 1.6875q-2.28125 1.671875 -3.609375 4.59375q-1.3125 2.921875 -1.3125 6.515625l0 19.28125q0 3.359375 1.15625 4.5625q1.15625 1.1875 3.796875 1.1875l0 1.6875q-1.28125 -0.078125 -3.875 -0.1875q-2.59375 -0.125 -5.40625 -0.125q-2.71875 0 -5.6875 0.125q-2.953125 0.109375 -4.390625 0.1875l0 -1.6875q3.125 0 4.4375 -1.1875q1.328125 -1.203125 1.328125 -4.5625l0 -25.125q0 -3.59375 -1.203125 -5.3125q-1.203125 -1.71875 -4.5625 -1.71875l0 -1.6875q2.5625 0.234375 4.96875 0.234375q2.71875 0 5.078125 -0.265625q2.359375 -0.28125 4.359375 -0.84375l0 8.71875q2.078125 -4.96875 5.71875 -6.96875q3.640625 -2.0 7.71875 -2.0zm62.713074 -14.234377l0 1.59375q-2.640625 0.09375 -4.0 0.609375q-1.359375 0.515625 -1.84375 1.921875q-0.46875 1.3906269 -0.46875 4.359377l0 39.671875q0 2.890625 0.46875 4.328125q0.484375 1.4375 1.84375 1.921875q1.359375 0.46875 4.0 0.640625l0 1.59375q-1.90625 -0.15625 -4.828125 -0.1875q-2.921875 -0.046875 -5.96875 -0.046875q-3.359375 0 -6.28125 0.046875q-2.921875 0.03125 -4.75 0.1875l0 -1.59375q2.71875 -0.171875 4.078125 -0.640625q1.359375 -0.484375 1.796875 -1.921875q0.4375 -1.4375 0.4375 -4.328125l0 -39.671875q0 -2.96875 -0.4375 -4.359377q-0.4375 -1.40625 -1.84375 -1.921875q-1.390625 -0.515625 -4.03125 -0.609375l0 -1.59375q1.828125 0.078125 4.75 0.15625q2.921875 0.078125 6.28125 0.078125q3.046875 0 5.96875 -0.078125q2.921875 -0.078125 4.828125 -0.15625zm33.12686 14.234377q3.203125 0 5.234375 0.84375q2.046875 0.84375 3.40625 2.28125q1.4375 1.515625 2.03125 3.921875q0.609375 2.40625 0.609375 6.484375l0 21.4375q0 3.359375 1.3125 4.5625q1.328125 1.1875 4.453125 1.1875l0 1.6875q-1.359375 -0.078125 -4.25 -0.1875q-2.875 -0.125 -5.671875 -0.125q-2.71875 0 -5.40625 0.125q-2.671875 0.109375 -4.03125 0.1875l0 -1.6875q2.71875 0 3.828125 -1.1875q1.125 -1.203125 1.125 -4.5625l0 -23.6875q0 -2.3125 -0.40625 -4.1875q-0.390625 -1.890625 -1.671875 -3.046875q-1.28125 -1.15625 -3.84375 -1.15625q-2.953125 0 -5.234375 1.6875q-2.28125 1.671875 -3.609375 4.59375q-1.3125 2.921875 -1.3125 6.515625l0 19.28125q0 3.359375 1.15625 4.5625q1.15625 1.1875 3.796875 1.1875l0 1.6875q-1.28125 -0.078125 -3.875 -0.1875q-2.59375 -0.125 -5.40625 -0.125q-2.71875 0 -5.6875 0.125q-2.953125 0.109375 -4.390625 0.1875l0 -1.6875q3.125 0 4.4375 -1.1875q1.328125 -1.203125 1.328125 -4.5625l0 -25.125q0 -3.59375 -1.203125 -5.3125q-1.203125 -1.71875 -4.5625 -1.71875l0 -1.6875q2.5625 0.234375 4.96875 0.234375q2.71875 0 5.078125 -0.265625q2.359375 -0.28125 4.359375 -0.84375l0 8.71875q2.078125 -4.96875 5.71875 -6.96875q3.640625 -2.0 7.71875 -2.0zm48.23996 0q3.203125 0 5.234375 0.84375q2.046875 0.84375 3.40625 2.28125q1.4375 1.515625 2.03125 3.921875q0.609375 2.40625 0.609375 6.484375l0 21.4375q0 3.359375 1.3125 4.5625q1.328125 1.1875 4.453125 1.1875l0 1.6875q-1.359375 -0.078125 -4.25 -0.1875q-2.875 -0.125 -5.671875 -0.125q-2.71875 0 -5.40625 0.125q-2.671875 0.109375 -4.03125 0.1875l0 -1.6875q2.71875 0 3.828125 -1.1875q1.125 -1.203125 1.125 -4.5625l0 -23.6875q0 -2.3125 -0.40625 -4.1875q-0.390625 -1.890625 -1.671875 -3.046875q-1.28125 -1.15625 -3.84375 -1.15625q-2.953125 0 -5.234375 1.6875q-2.28125 1.671875 -3.609375 4.59375q-1.3125 2.921875 -1.3125 6.515625l0 19.28125q0 3.359375 1.15625 4.5625q1.15625 1.1875 3.796875 1.1875l0 1.6875q-1.28125 -0.078125 -3.875 -0.1875q-2.59375 -0.125 -5.40625 -0.125q-2.71875 0 -5.6875 0.125q-2.953125 0.109375 -4.390625 0.1875l0 -1.6875q3.125 0 4.4375 -1.1875q1.328125 -1.203125 1.328125 -4.5625l0 -25.125q0 -3.59375 -1.203125 -5.3125q-1.203125 -1.71875 -4.5625 -1.71875l0 -1.6875q2.5625 0.234375 4.96875 0.234375q2.71875 0 5.078125 -0.265625q2.359375 -0.28125 4.359375 -0.84375l0 8.71875q2.078125 -4.96875 5.71875 -6.96875q3.640625 -2.0 7.71875 -2.0zm35.286835 0q3.1875 0 5.546875 1.0q2.359375 1.0 3.40625 1.8125q2.640625 2.078125 3.28125 -2.71875l1.765625 0q-0.171875 2.234375 -0.25 5.390625q-0.078125 3.15625 -0.078125 8.359375l-1.765625 0q-0.46875 -2.953125 -1.640625 -5.75q-1.15625 -2.8125 -3.359375 -4.640625q-2.1875 -1.84375 -5.71875 -1.84375q-2.640625 0 -4.40625 1.484375q-1.75 1.46875 -1.75 4.359375q0 2.390625 1.4375 4.15625q1.4375 1.75 3.71875 3.28125q2.28125 1.515625 4.921875 3.28125q2.96875 2.0 5.328125 3.96875q2.359375 1.953125 3.75 4.359375q1.40625 2.390625 1.40625 5.59375q0 3.671875 -1.96875 6.234375q-1.953125 2.5625 -5.15625 3.890625q-3.203125 1.3125 -7.03125 1.3125q-1.921875 0 -3.609375 -0.359375q-1.671875 -0.359375 -3.109375 -0.921875q-0.890625 -0.484375 -1.734375 -1.0q-0.828125 -0.53125 -1.625 -1.0q-0.8125 -0.5625 -1.453125 0.15625q-0.640625 0.71875 -0.953125 2.5625l-1.765625 0q0.171875 -2.5625 0.25 -6.234375q0.078125 -3.6875 0.078125 -9.765625l1.75 0q0.5625 4.390625 1.6875 7.765625q1.125 3.359375 3.3125 5.234375q2.203125 1.875 6.046875 1.875q1.515625 0 3.03125 -0.671875q1.53125 -0.6875 2.53125 -2.203125q1.0 -1.515625 1.0 -4.078125q0 -3.53125 -2.4375 -5.796875q-2.4375 -2.28125 -6.28125 -4.84375q-2.71875 -1.921875 -5.171875 -3.796875q-2.4375 -1.890625 -3.953125 -4.25q-1.515625 -2.359375 -1.515625 -5.640625q0 -3.59375 1.71875 -5.90625q1.71875 -2.328125 4.59375 -3.484375q2.890625 -1.171875 6.171875 -1.171875zm46.316223 0q6.390625 0 10.671875 5.328125q4.28125 5.3125 4.28125 16.125q0 7.59375 -2.484375 12.484375q-2.46875 4.875 -6.59375 7.234375q-4.125 2.359375 -8.921875 2.359375q-3.75 0 -7.203125 -1.875q-3.4375 -1.890625 -5.265625 -5.734375l1.4375 0.40625q1.75 2.71875 4.390625 4.078125q2.640625 1.359375 5.359375 1.359375q5.046875 0 7.5625 -4.875q2.515625 -4.890625 2.515625 -15.046875q0 -6.640625 -1.0 -10.875q-1.0 -4.25 -2.953125 -6.203125q-1.953125 -1.953125 -4.921875 -1.953125q-3.4375 0 -6.328125 2.953125q-2.875 2.953125 -3.4375 8.5625l-0.796875 -1.6875q1.125 -6.0 4.84375 -9.3125q3.71875 -3.328125 8.84375 -3.328125zm-12.40625 -20.234377l0 59.359375q-1.359375 0.484375 -2.796875 1.203125q-1.4375 0.71875 -2.71875 1.5625q-1.28125 0.828125 -2.40625 1.796875l-1.28125 -0.640625q0.328125 -1.125 0.4375 -2.234375q0.125 -1.125 0.125 -2.328125l0 -49.125q0 -3.59375 -1.234375 -5.3125q-1.234375 -1.71875 -4.515625 -1.71875l0 -1.6875q2.546875 0.25 4.953125 0.25q2.640625 0 5.03125 -0.28125q2.40625 -0.28125 4.40625 -0.84375zm58.804962 20.234377q2.3125 0 3.953125 0.96875q1.640625 0.953125 2.484375 2.4375q0.84375 1.484375 0.84375 3.3125q0 2.328125 -1.40625 3.96875q-1.390625 1.640625 -3.71875 1.640625q-2.0 0 -3.40625 -1.203125q-1.390625 -1.203125 -1.390625 -3.28125q0 -1.75 0.921875 -2.984375q0.921875 -1.25 2.109375 -1.96875q-0.796875 -0.640625 -1.90625 -0.5625q-2.171875 0.078125 -4.015625 1.40625q-1.828125 1.3125 -3.109375 3.359375q-1.28125 2.03125 -2.0 4.359375q-0.71875 2.3125 -0.71875 4.3125l0 18.40625q0 3.921875 2.15625 5.234375q2.15625 1.3125 6.0 1.3125l0 1.6875q-1.84375 -0.078125 -5.25 -0.1875q-3.390625 -0.125 -7.15625 -0.125q-2.875 0 -5.75 0.125q-2.875 0.109375 -4.40625 0.1875l0 -1.6875q3.125 0 4.4375 -1.1875q1.328125 -1.203125 1.328125 -4.5625l0 -25.125q0 -3.59375 -1.203125 -5.3125q-1.203125 -1.71875 -4.5625 -1.71875l0 -1.6875q2.5625 0.234375 4.96875 0.234375q2.71875 0 5.078125 -0.265625q2.359375 -0.28125 4.359375 -0.84375l0 9.203125q0.953125 -2.328125 2.546875 -4.484375q1.609375 -2.15625 3.84375 -3.5625q2.25 -1.40625 4.96875 -1.40625zm47.9256 0.25l0 33.515625q0 3.59375 1.234375 5.328125q1.234375 1.71875 4.515625 1.71875l0 1.671875q-2.484375 -0.234375 -4.953125 -0.234375q-2.640625 0 -5.046875 0.234375q-2.390625 0.234375 -4.390625 0.875l0 -8.71875q-2.0 4.8125 -5.5625 6.859375q-3.5625 2.03125 -7.484375 2.03125q-2.953125 0 -5.046875 -0.84375q-2.078125 -0.84375 -3.4375 -2.203125q-1.4375 -1.59375 -2.0 -4.109375q-0.5625 -2.53125 -0.5625 -6.375l0 -20.15625q0 -3.59375 -1.203125 -5.3125q-1.1875 -1.71875 -4.546875 -1.71875l0 -1.6875q2.5625 0.234375 4.953125 0.234375q2.640625 0 5.03125 -0.265625q2.40625 -0.28125 4.40625 -0.84375l0 32.0q0 2.3125 0.3125 4.234375q0.328125 1.921875 1.53125 3.046875q1.203125 1.109375 3.84375 1.109375q2.796875 0 5.0 -1.671875q2.203125 -1.6875 3.484375 -4.5625q1.28125 -2.875 1.28125 -6.484375l0 -18.078125q0 -3.59375 -1.203125 -5.3125q-1.203125 -1.71875 -4.5625 -1.71875l0 -1.6875q2.5625 0.234375 4.953125 0.234375q2.640625 0 5.046875 -0.265625q2.40625 -0.28125 4.40625 -0.84375zm29.91681 -0.25q2.71875 0 5.1875 0.6875q2.484375 0.671875 4.328125 1.875q1.921875 1.203125 2.921875 2.890625q1.0 1.671875 1.0 3.671875q0 2.40625 -1.359375 3.765625q-1.359375 1.359375 -3.515625 1.359375q-2.171875 0 -3.609375 -1.203125q-1.4375 -1.203125 -1.4375 -3.4375q0 -2.078125 1.203125 -3.390625q1.203125 -1.328125 2.796875 -1.734375q-0.71875 -1.203125 -2.515625 -2.03125q-1.796875 -0.84375 -3.890625 -0.84375q-2.15625 0 -4.125 1.125q-1.953125 1.109375 -3.46875 3.4375q-1.515625 2.3125 -2.4375 6.0q-0.921875 3.671875 -0.921875 8.875q0 6.71875 1.5625 10.6875q1.5625 3.953125 4.109375 5.640625q2.5625 1.671875 5.53125 1.671875q1.921875 0 3.953125 -0.71875q2.046875 -0.71875 3.921875 -2.390625q1.875 -1.6875 3.328125 -4.578125l1.515625 0.5625q-0.875 2.640625 -2.765625 5.359375q-1.875 2.71875 -4.921875 4.484375q-3.03125 1.765625 -7.4375 1.765625q-5.03125 0 -9.125 -2.484375q-4.078125 -2.484375 -6.484375 -7.234375q-2.390625 -4.765625 -2.390625 -11.640625q0 -6.71875 2.4375 -11.71875q2.4375 -5.0 6.75 -7.71875q4.328125 -2.734375 9.859375 -2.734375zm32.63562 -20.312502l0 55.28125q0 3.359375 1.15625 4.5625q1.15625 1.1875 3.96875 1.1875l0 1.6875q-1.359375 -0.078125 -4.046875 -0.1875q-2.671875 -0.125 -5.390625 -0.125q-2.8125 0 -5.734375 0.125q-2.90625 0.109375 -4.359375 0.1875l0 -1.6875q3.125 0 4.4375 -1.1875q1.328125 -1.203125 1.328125 -4.5625l0 -45.6875q0 -3.59375 -1.25 -5.3125q-1.234375 -1.71875 -4.515625 -1.71875l0 -1.6875q2.5625 0.25 4.96875 0.25q2.640625 0 5.03125 -0.28125q2.40625 -0.28125 4.40625 -0.84375zm25.59375 21.437502l0 1.59375q-2.15625 0.328125 -4.15625 1.453125q-2.0 1.109375 -3.921875 3.109375l-9.59375 10.078125l1.03125 -2.0l14.484375 21.203125q1.203125 1.6875 2.3125 2.765625q1.125 1.078125 2.8125 1.390625l0 1.6875q-1.046875 -0.078125 -3.09375 -0.1875q-2.03125 -0.125 -4.03125 -0.125q-2.640625 0 -5.359375 0.125q-2.71875 0.109375 -4.0 0.1875l0 -1.6875q1.609375 0 2.203125 -0.796875q0.59375 -0.796875 -0.203125 -1.921875l-8.796875 -13.75q-1.359375 -1.921875 -2.484375 -2.484375q-1.109375 -0.5625 -3.203125 -0.640625l0 -1.59375q2.328125 -0.25 3.796875 -0.890625q1.484375 -0.640625 2.765625 -2.078125l6.0 -6.078125q2.5625 -2.5625 2.5625 -4.28125q0 -1.71875 -1.640625 -2.546875q-1.640625 -0.84375 -4.359375 -0.9375l0 -1.59375q2.15625 0.078125 4.75 0.203125q2.609375 0.125 4.375 0.125q1.4375 0 2.90625 -0.046875q1.484375 -0.046875 2.765625 -0.125q1.28125 -0.078125 2.078125 -0.15625zm47.039307 -15.359377l0 1.59375q-2.640625 0.09375 -4.0 0.609375q-1.359375 0.515625 -1.84375 1.921875q-0.46875 1.3906269 -0.46875 4.359377l0 39.671875q0 2.890625 0.46875 4.328125q0.484375 1.4375 1.84375 1.921875q1.359375 0.46875 4.0 0.640625l0 1.59375q-1.90625 -0.15625 -4.828125 -0.1875q-2.921875 -0.046875 -5.96875 -0.046875q-3.359375 0 -6.28125 0.046875q-2.921875 0.03125 -4.75 0.1875l0 -1.59375q2.71875 -0.171875 4.078125 -0.640625q1.359375 -0.484375 1.796875 -1.921875q0.4375 -1.4375 0.4375 -4.328125l0 -39.671875q0 -2.96875 -0.4375 -4.359377q-0.4375 -1.40625 -1.84375 -1.921875q-1.390625 -0.515625 -4.03125 -0.609375l0 -1.59375q1.828125 0.078125 4.75 0.15625q2.921875 0.078125 6.28125 0.078125q3.046875 0 5.96875 -0.078125q2.921875 -0.078125 4.828125 -0.15625zm33.12683 14.234377q3.203125 0 5.234375 0.84375q2.046875 0.84375 3.40625 2.28125q1.4375 1.515625 2.03125 3.921875q0.609375 2.40625 0.609375 6.484375l0 21.4375q0 3.359375 1.3125 4.5625q1.328125 1.1875 4.453125 1.1875l0 1.6875q-1.359375 -0.078125 -4.25 -0.1875q-2.875 -0.125 -5.671875 -0.125q-2.71875 0 -5.40625 0.125q-2.671875 0.109375 -4.03125 0.1875l0 -1.6875q2.71875 0 3.828125 -1.1875q1.125 -1.203125 1.125 -4.5625l0 -23.6875q0 -2.3125 -0.40625 -4.1875q-0.390625 -1.890625 -1.671875 -3.046875q-1.28125 -1.15625 -3.84375 -1.15625q-2.953125 0 -5.234375 1.6875q-2.28125 1.671875 -3.609375 4.59375q-1.3125 2.921875 -1.3125 6.515625l0 19.28125q0 3.359375 1.15625 4.5625q1.15625 1.1875 3.796875 1.1875l0 1.6875q-1.28125 -0.078125 -3.875 -0.1875q-2.59375 -0.125 -5.40625 -0.125q-2.71875 0 -5.6875 0.125q-2.953125 0.109375 -4.390625 0.1875l0 -1.6875q3.125 0 4.4375 -1.1875q1.328125 -1.203125 1.328125 -4.5625l0 -25.125q0 -3.59375 -1.203125 -5.3125q-1.203125 -1.71875 -4.5625 -1.71875l0 -1.6875q2.5625 0.234375 4.96875 0.234375q2.71875 0 5.078125 -0.265625q2.359375 -0.28125 4.359375 -0.84375l0 8.71875q2.078125 -4.96875 5.71875 -6.96875q3.640625 -2.0 7.71875 -2.0zm40.724365 0q2.71875 0 5.1875 0.6875q2.484375 0.671875 4.328125 1.875q1.921875 1.203125 2.921875 2.890625q1.0 1.671875 1.0 3.671875q0 2.40625 -1.359375 3.765625q-1.359375 1.359375 -3.515625 1.359375q-2.171875 0 -3.609375 -1.203125q-1.4375 -1.203125 -1.4375 -3.4375q0 -2.078125 1.203125 -3.390625q1.203125 -1.328125 2.796875 -1.734375q-0.71875 -1.203125 -2.515625 -2.03125q-1.796875 -0.84375 -3.890625 -0.84375q-2.15625 0 -4.125 1.125q-1.953125 1.109375 -3.46875 3.4375q-1.515625 2.3125 -2.4375 6.0q-0.921875 3.671875 -0.921875 8.875q0 6.71875 1.5625 10.6875q1.5625 3.953125 4.109375 5.640625q2.5625 1.671875 5.53125 1.671875q1.921875 0 3.953125 -0.71875q2.046875 -0.71875 3.921875 -2.390625q1.875 -1.6875 3.328125 -4.578125l1.515625 0.5625q-0.875 2.640625 -2.765625 5.359375q-1.875 2.71875 -4.921875 4.484375q-3.03125 1.765625 -7.4375 1.765625q-5.03125 0 -9.125 -2.484375q-4.078125 -2.484375 -6.484375 -7.234375q-2.390625 -4.765625 -2.390625 -11.640625q0 -6.71875 2.4375 -11.71875q2.4375 -5.0 6.75 -7.71875q4.328125 -2.734375 9.859375 -2.734375zm26.94812 32.5625q2.40625 0 4.046875 1.5625q1.640625 1.5625 1.640625 3.96875q0 2.3125 -1.640625 3.875q-1.640625 1.5625 -4.046875 1.5625q-2.390625 0 -4.03125 -1.5625q-1.640625 -1.5625 -1.640625 -3.875q0 -2.40625 1.640625 -3.96875q1.640625 -1.5625 4.03125 -1.5625z" fill-rule="nonzero"/></g></svg>